# xmcd CD database file
# Copyright (C) 1993-2000  Ti Kan
#
# Track frame offsets:
#	900
#	20580
#	39113
#	59468
#	77625
#	104340
#	123370
#	145850
#	163938
#	192823
#	215063
#	237333
#
# Disc length: 3491 seconds
#
# Revision: 3
# Processed by: cddbd v1.5.2PL0 Copyright (c) Steve Scherf et al.
# Submitted via: xmcd 2.6 PL0
#
DISCID=9e0d940c,a50d970c
DTITLE=Gerry Rafferty - On A Wing and A Prayer
DYEAR=1992
DGENRE=Pop
TTITLE0=Time's Caught Up On You
TTITLE1=I See Red
TTITLE2=It's Easy To Talk
TTITLE3=I Could Be Wrong
TTITLE4=Don't Speak Of My Heart
TTITLE5=Get Out Of My Life Woman
TTITLE6=Don't Give Up On Me
TTITLE7=Hang On
TTITLE8=Love And Affection
TTITLE9=Does He Know What He's Taken On
TTITLE10=The Light Of Love
TTITLE11=Life Goes On
EXTD=YEAR: 1992 ID3G: 13
EXTT0=
EXTT1=
EXTT2=
EXTT3=
EXTT4=
EXTT5=
EXTT6=
EXTT7=
EXTT8=
EXTT9=
EXTT10=
EXTT11=
PLAYORDER=
